HIERARCHY
ROOT root
{
	OFFSET 0.000000 0.000000 0.000000
	CHANNELS 6 Xposition Yposition Zposition Zrotation Yrotation Xrotation
	JOINT lhip
	{
		OFFSET 0.058581 -0.082280 -0.017664
		CHANNELS 3 Zrotation Yrotation Xrotation
		JOINT lknee
		{
			OFFSET 0.043451 -0.386469 0.008037
			CHANNELS 3 Zrotation Yrotation Xrotation
			JOINT lankle
			{
				OFFSET -0.014790 -0.426874 -0.037428
				CHANNELS 3 Zrotation Yrotation Xrotation
				JOINT ltoe
				{
					OFFSET 0.041054 -0.060286 0.122042
					CHANNELS 3 Zrotation Yrotation Xrotation
					End Site
					{
						OFFSET 0.000000 0.000000 0.000000
					}
				}
			}
		}
	}
	JOINT rhip
	{
		OFFSET -0.060310 -0.090513 -0.013543
		CHANNELS 3 Zrotation Yrotation Xrotation
		JOINT rknee
		{
			OFFSET -0.043257 -0.383688 -0.004843
			CHANNELS 3 Zrotation Yrotation Xrotation
			JOINT rankle
			{
				OFFSET 0.019056 -0.420046 -0.034562
				CHANNELS 3 Zrotation Yrotation Xrotation
				JOINT rtoe
				{
					OFFSET -0.034840 -0.062106 0.130323
					CHANNELS 3 Zrotation Yrotation Xrotation
					End Site
					{
						OFFSET 0.000000 0.000000 0.000000
					}
				}
			}
		}
	}
	JOINT lowerback
	{
		OFFSET 0.004439 0.124404 -0.038385
		CHANNELS 3 Zrotation Yrotation Xrotation
		JOINT upperback
		{
			OFFSET 0.004488 0.137956 0.026820
			CHANNELS 3 Zrotation Yrotation Xrotation
			JOINT chest
			{
				OFFSET -0.002265 0.056032 0.002855
				CHANNELS 3 Zrotation Yrotation Xrotation
				JOINT lowerneck
				{
					OFFSET -0.013390 0.211636 -0.033468
					CHANNELS 3 Zrotation Yrotation Xrotation
					JOINT upperneck
					{
						OFFSET 0.010113 0.088937 0.050410
						CHANNELS 3 Zrotation Yrotation Xrotation
						End Site
						{
							OFFSET 0.000000 0.000000 0.000000
						}
					}
				}
				JOINT lclavicle
				{
					OFFSET 0.071702 0.114000 -0.018898
					CHANNELS 3 Zrotation Yrotation Xrotation
					JOINT lshoulder
					{
						OFFSET 0.122921 0.045205 -0.019046
						CHANNELS 3 Zrotation Yrotation Xrotation
						JOINT lelbow
						{
							OFFSET 0.255332 -0.015649 -0.022946
							CHANNELS 3 Zrotation Yrotation Xrotation
							JOINT lwrist
							{
								OFFSET 0.265709 0.012698 -0.007375
								CHANNELS 3 Zrotation Yrotation Xrotation
								End Site
								{
									OFFSET 0.000000 0.000000 0.000000
								}
							}
						}
					}
				}
				JOINT rclavicle
				{
					OFFSET -0.082954 0.112472 -0.023707
					CHANNELS 3 Zrotation Yrotation Xrotation
					JOINT rshoulder
					{
						OFFSET -0.113228 0.046853 -0.008472
						CHANNELS 3 Zrotation Yrotation Xrotation
						JOINT relbow
						{
							OFFSET -0.260127 -0.014369 -0.031269
							CHANNELS 3 Zrotation Yrotation Xrotation
							JOINT rwrist
							{
								OFFSET -0.269108 0.006794 -0.006027
								CHANNELS 3 Zrotation Yrotation Xrotation
								End Site
								{
									OFFSET 0.000000 0.000000 0.000000
								}
							}
						}
					}
				}
			}
		}
	}
}
MOTION
Frames: 5
Frame Time: 0.033333
-0.887289 0.294486 0.808318 90.091795 1.633460 96.657409 11.250477 1.062959 -56.474579 -6.132896 13.540841 70.987346 5.652647 13.624093 -25.364341 0.000000 -0.000000 0.000000 -10.286899 -0.334790 -56.805784 0.819237 -12.875172 71.339033 0.333514 -11.184423 -23.135171 0.000000 -0.000000 0.000000 0.794399 -1.631710 55.872060 1.031799 -0.083203 -5.599516 1.502115 -2.472924 9.418062 -2.545915 2.302753 -8.840640 5.046376 -1.216720 -3.887661 -19.199073 3.934773 9.745318 -63.289992 11.643672 -0.046991 -2.860305 -17.086463 13.523684 6.548506 -8.961061 -17.074743 15.847688 -0.340596 7.791302 63.040500 -9.145453 4.668231 -6.851126 23.127166 4.585229 2.543133 3.604269 -7.171961 
-0.887277 0.294142 0.803739 90.108335 1.653738 97.122615 11.548172 1.171958 -57.500514 -6.184446 13.814913 71.856444 5.856879 13.685716 -25.841464 0.000000 -0.000000 0.000000 -10.505597 -0.333231 -57.820478 0.895126 -13.111369 72.237698 0.137234 -11.220399 -23.779139 0.000000 -0.000000 0.000000 0.806434 -1.722620 56.079931 0.981515 -0.035908 -6.086177 1.443187 -2.478166 9.359538 -2.537090 2.486743 -9.493215 5.029041 -1.355637 -3.711571 -19.225587 3.654273 9.646049 -62.932593 11.417653 -0.123139 -2.708758 -16.260205 13.290550 5.822669 -8.831559 -16.961821 15.712070 -0.180391 7.914142 63.402363 -9.115712 4.705683 -7.010308 22.691621 4.701043 2.639200 3.530927 -7.487429 
-0.886493 0.293608 0.797692 90.155559 1.682638 97.670272 11.887251 1.276492 -58.714509 -6.203567 14.075847 73.021792 6.034993 13.796857 -26.752764 0.000000 -0.000000 0.000000 -10.779411 -0.309060 -59.005026 0.986275 -13.440342 73.500027 -0.068516 -11.115504 -25.257364 0.000000 -0.000000 0.000000 0.848102 -1.863688 56.407249 0.892909 0.035670 -6.818350 1.373939 -2.433320 9.117494 -2.501649 2.704186 -10.264537 5.060987 -1.644449 -3.366807 -19.521043 2.923438 9.397958 -62.276865 10.599352 -0.103368 -2.330594 -15.214637 12.448303 4.772885 -8.612455 -16.939003 15.828137 0.338594 8.154336 63.678187 -8.653765 4.717619 -7.257754 21.875180 4.236104 2.399481 3.574963 -8.316955 
-0.884482 0.293222 0.790423 90.226803 1.651889 98.232834 12.213959 1.266295 -60.022854 -6.095989 14.332671 74.456490 6.086394 14.011752 -27.969269 0.000000 -0.000000 0.000000 -11.086495 -0.265659 -60.293054 0.958349 -13.726970 75.096680 -0.190304 -11.036235 -27.364451 0.000000 -0.000000 0.000000 0.909419 -1.956208 56.896210 0.797971 0.175222 -7.821748 1.317244 -2.349851 8.617524 -2.360904 2.821199 -11.255246 5.132320 -2.115836 -2.669395 -20.067601 1.676511 8.951556 -61.412808 8.741868 0.230285 -1.497856 -13.996076 10.709031 4.528620 -8.307442 -17.475108 16.234182 1.160248 8.390890 63.831209 -7.611204 4.959774 -7.730776 20.837442 3.142817 1.336247 3.860529 -9.289016 
-0.880982 0.292975 0.782245 90.305069 1.549610 98.935360 12.540254 1.056435 -61.474982 -5.729277 14.596476 76.065070 6.159244 14.170983 -29.064931 0.000000 -0.000000 0.000000 -11.405194 -0.056053 -61.809536 0.663574 -13.828275 76.889155 -0.243621 -11.181784 -29.076181 0.000000 -0.000000 0.000000 0.967809 -1.889708 57.216646 0.774612 0.366129 -8.971223 1.359959 -2.315395 7.801034 -2.266368 2.690539 -12.458747 5.099835 -2.509230 -1.708121 -21.103060 -0.197705 8.204060 -60.274466 5.810900 0.593860 0.126388 -12.810965 7.999346 3.646009 -7.625080 -16.685171 16.929500 2.395011 8.354536 63.628171 -5.893619 5.321617 -8.885632 20.065086 1.307730 1.482738 3.975577 -9.906493 
